{
	"accessors" : 
	[
		{
			"bufferView" : 2,
			"byteOffset" : 0,
			"componentType" : 5126,
			"count" : 48,
			"max" : 
			[
				1,
				1,
				1,
				1
			],
			"min" : 
			[
				1,
				1,
				1,
				1
			],
			"name" : "accessor_color_m0-PolyGem25_-112342",
			"type" : "VEC4"
		},
		{
			"bufferView" : 2,
			"byteOffset" : 768,
			"componentType" : 5126,
			"count" : 2352,
			"max" : 
			[
				1,
				1,
				1,
				1
			],
			"min" : 
			[
				5.692175545846112e-05,
				0.01606770046055317,
				0,
				1
			],
			"name" : "accessor_color_m1-PolyPaper9_-112390",
			"type" : "VEC4"
		},
		{
			"bufferView" : 0,
			"byteOffset" : 0,
			"componentType" : 5123,
			"count" : 48,
			"max" : 
			[
				47
			],
			"min" : 
			[
				0
			],
			"name" : "accessor_indices_0_m0-PolyGem25_-112342",
			"type" : "SCALAR"
		},
		{
			"bufferView" : 0,
			"byteOffset" : 96,
			"componentType" : 5123,
			"count" : 2532,
			"max" : 
			[
				2351
			],
			"min" : 
			[
				0
			],
			"name" : "accessor_indices_0_m1-PolyPaper9_-112390",
			"type" : "SCALAR"
		},
		{
			"bufferView" : 1,
			"byteOffset" : 576,
			"componentType" : 5126,
			"count" : 48,
			"max" : 
			[
				0.1950417,
				0.9191585,
				0.4291613
			],
			"min" : 
			[
				-0.9973319,
				-0.8772096,
				-0.9112753
			],
			"name" : "accessor_normal_m0-PolyGem25_-112342",
			"type" : "VEC3"
		},
		{
			"bufferView" : 1,
			"byteOffset" : 29376,
			"componentType" : 5126,
			"count" : 2352,
			"max" : 
			[
				0.9973373,
				0.9981728,
				0.9999845000000001
			],
			"min" : 
			[
				-0.9973373,
				-0.9992799999999999,
				-0.9999845000000001
			],
			"name" : "accessor_normal_m1-PolyPaper9_-112390",
			"type" : "VEC3"
		},
		{
			"bufferView" : 1,
			"byteOffset" : 0,
			"componentType" : 5126,
			"count" : 48,
			"max" : 
			[
				-0.3207405,
				1.947137,
				-0.1755499
			],
			"min" : 
			[
				-0.4968482,
				1.375368,
				-0.5318387999999999
			],
			"name" : "accessor_position_m0-PolyGem25_-112342",
			"type" : "VEC3"
		},
		{
			"bufferView" : 1,
			"byteOffset" : 1152,
			"componentType" : 5126,
			"count" : 2352,
			"max" : 
			[
				0.647863,
				3.060242,
				0.1508083
			],
			"min" : 
			[
				-0.4968482,
				0.6877545,
				-1.061598
			],
			"name" : "accessor_position_m1-PolyPaper9_-112390",
			"type" : "VEC3"
		}
	],
	"asset" : 
	{
		"copyright" : "Unknown",
		"generator" : "glTF 1-to-2 Upgrader for Google Blocks",
		"version" : "2.0"
	},
	"bufferViews" : 
	[
		{
			"buffer" : 0,
			"byteLength" : 5160,
			"byteOffset" : 0,
			"name" : "ushortBufferView",
			"target" : 34963
		},
		{
			"buffer" : 0,
			"byteLength" : 57600,
			"byteOffset" : 5160,
			"byteStride" : 12,
			"name" : "vec3BufferView",
			"target" : 34962
		},
		{
			"buffer" : 0,
			"byteLength" : 38400,
			"byteOffset" : 62760,
			"byteStride" : 16,
			"name" : "vec4BufferView",
			"target" : 34962
		}
	],
	"buffers" : 
	[
		{
			"byteLength" : 101160,
			"name" : "model",
			"uri" : "model.bin"
		}
	],
	"materials" : 
	[
		{
			"alphaMode" : "OPAQUE",
			"doubleSided" : false,
			"name" : "BlocksPaper",
			"pbrMetallicRoughness" : 
			{
				"baseColorFactor" : 
				[
					1,
					1,
					1,
					1
				],
				"metallicFactor" : 0,
				"roughnessFactor" : 0.6
			}
		},
		{
			"alphaMode" : "BLEND",
			"doubleSided" : false,
			"name" : "BlocksGlass",
			"pbrMetallicRoughness" : 
			{
				"baseColorFactor" : 
				[
					0.2,
					0.2,
					1,
					0.3
				],
				"metallicFactor" : 1,
				"roughnessFactor" : 0.4
			}
		},
		{
			"alphaMode" : "OPAQUE",
			"doubleSided" : true,
			"name" : "BlocksGem",
			"pbrMetallicRoughness" : 
			{
				"baseColorFactor" : 
				[
					1,
					0.4,
					1,
					1
				],
				"metallicFactor" : 0,
				"roughnessFactor" : 0.1
			}
		}
	],
	"meshes" : 
	[
		{
			"name" : "mesh_m0-PolyGem25_-112342",
			"primitives" : 
			[
				{
					"attributes" : 
					{
						"COLOR_0" : 0,
						"NORMAL" : 4,
						"POSITION" : 6
					},
					"indices" : 2,
					"material" : 2,
					"mode" : 4
				}
			]
		},
		{
			"name" : "mesh_m1-PolyPaper9_-112390",
			"primitives" : 
			[
				{
					"attributes" : 
					{
						"COLOR_0" : 1,
						"NORMAL" : 5,
						"POSITION" : 7
					},
					"indices" : 3,
					"material" : 0,
					"mode" : 4
				}
			]
		}
	],
	"nodes" : 
	[
		{
			"matrix" : 
			[
				1,
				0,
				0,
				0,
				0,
				1,
				0,
				0,
				0,
				0,
				1,
				0,
				0,
				0,
				0,
				1
			],
			"mesh" : 1,
			"name" : "node_MeshObject-1391270400-PolyPaper9"
		},
		{
			"matrix" : 
			[
				1,
				0,
				0,
				0,
				0,
				1,
				0,
				0,
				0,
				0,
				1,
				0,
				0,
				0,
				0,
				1
			],
			"mesh" : 0,
			"name" : "node_MeshObject-872550336-PolyGem25"
		}
	],
	"scene" : 0,
	"scenes" : 
	[
		{
			"extras" : {},
			"name" : "defaultScene",
			"nodes" : 
			[
				1,
				0
			]
		}
	]
}